<svg width="82" height="82" viewBox="0 0 82 82" fill="none" xmlns="http://www.w3.org/2000/svg">
<g filter="url(#filter0_d_228_1189)">
<rect x="25" y="17" width="32" height="32" rx="16" fill="white"/>
<path fill-rule="evenodd" clip-rule="evenodd" d="M40.973 23.8887C39.5496 23.8887 38.3668 23.9394 37.4073 24.1358C36.4357 24.3346 35.635 24.6941 35.0334 25.3531C34.4389 26.0044 34.1082 26.873 33.9186 27.9501C33.7293 29.0253 33.6699 30.3752 33.6699 32.0478C33.6699 32.6933 33.6688 33.2994 33.6678 33.8679C33.6629 36.5565 33.6596 38.4049 33.7808 39.6104C33.8531 40.3296 33.9779 40.9402 34.2521 41.3787C34.3996 41.6145 34.5954 41.8099 34.8498 41.94C35.0995 42.0678 35.3633 42.1109 35.6157 42.1109C36.1924 42.1109 36.7516 41.7937 37.2029 41.48C37.6435 41.1739 38.1074 40.7775 38.546 40.4026L38.6498 40.314C39.1342 39.9005 39.5891 39.5188 40.0161 39.2385C40.4589 38.9478 40.7702 38.8362 40.973 38.8362C41.1758 38.8362 41.4871 38.9478 41.93 39.2385C42.3569 39.5188 42.8118 39.9005 43.2962 40.314L43.4 40.4026L43.4 40.4027C43.8387 40.7775 44.3025 41.1739 44.7431 41.48C45.1945 41.7937 45.7537 42.1109 46.3303 42.1109C46.5828 42.1109 46.8465 42.0678 47.0963 41.94C47.3506 41.8099 47.5465 41.6145 47.6939 41.3787C47.9682 40.9402 48.0929 40.3296 48.1652 39.6104C48.2864 38.4049 48.2831 36.5565 48.2782 33.8679V33.8679C48.2772 33.2994 48.2761 32.6933 48.2761 32.0478C48.2761 30.3752 48.2167 29.0253 48.0275 27.9501C47.8379 26.873 47.5071 26.0044 46.9126 25.3531C46.311 24.6941 45.5103 24.3346 44.5387 24.1358C43.5792 23.9394 42.3965 23.8887 40.973 23.8887ZM35.0032 32.0478C35.0032 30.3884 35.0637 29.1357 35.2317 28.1813C35.3994 27.2288 35.6632 26.6409 36.0182 26.252C36.366 25.8709 36.8696 25.6068 37.6746 25.442C38.4917 25.2748 39.5578 25.222 40.973 25.222C42.3882 25.222 43.4543 25.2748 44.2714 25.442C45.0764 25.6068 45.58 25.8709 45.9279 26.252C46.2828 26.6409 46.5467 27.2288 46.7143 28.1813C46.8823 29.1357 46.9428 30.3884 46.9428 32.0478C46.9428 32.709 46.9438 33.3249 46.9448 33.8984C46.9494 36.588 46.9523 38.3455 46.8386 39.477C46.7685 40.1743 46.6621 40.514 46.5635 40.6717C46.5245 40.7339 46.4986 40.7481 46.489 40.753C46.4748 40.7602 46.4326 40.7776 46.3303 40.7776C46.1981 40.7776 45.9362 40.6855 45.5039 40.3851C45.1207 40.1188 44.7061 39.7647 44.2509 39.3759L44.1618 39.2998C43.6871 38.8946 43.17 38.4576 42.6617 38.1239C42.1693 37.8007 41.5822 37.5029 40.973 37.5029C40.3638 37.5029 39.7767 37.8007 39.2843 38.1239C38.776 38.4576 38.2589 38.8946 37.7842 39.2998L37.6951 39.3759L37.695 39.376C37.2399 39.7647 36.8253 40.1188 36.4421 40.3851C36.0098 40.6855 35.7479 40.7776 35.6157 40.7776C35.5134 40.7776 35.4712 40.7602 35.457 40.753C35.4475 40.7481 35.4215 40.7339 35.3825 40.6717C35.284 40.514 35.1776 40.1743 35.1074 39.477C34.9937 38.3456 34.9967 36.588 35.0012 33.8984C35.0022 33.3249 35.0032 32.709 35.0032 32.0478ZM37.9261 29.86C37.5579 29.86 37.2594 30.1584 37.2594 30.5266C37.2594 30.8948 37.5579 31.1933 37.9261 31.1933H44.0194C44.3876 31.1933 44.6861 30.8948 44.6861 30.5266C44.6861 30.1584 44.3876 29.86 44.0194 29.86H37.9261Z" fill="#303030"/>
</g>
<defs>
<filter id="filter0_d_228_1189" x="0" y="0" width="82" height="82" filterUnits="userSpaceOnUse" color-interpolation-filters="sRGB">
<feFlood flood-opacity="0" result="BackgroundImageFix"/>
<feColorMatrix in="SourceAlpha" type="matrix" values="0 0 0 0 0 0 0 0 0 0 0 0 0 0 0 0 0 0 127 0" result="hardAlpha"/>
<feOffset dy="8"/>
<feGaussianBlur stdDeviation="12.5"/>
<feComposite in2="hardAlpha" operator="out"/>
<feColorMatrix type="matrix" values="0 0 0 0 0.12549 0 0 0 0 0.12549 0 0 0 0 0.12549 0 0 0 0.15 0"/>
<feBlend mode="normal" in2="BackgroundImageFix" result="effect1_dropShadow_228_1189"/>
<feBlend mode="normal" in="SourceGraphic" in2="effect1_dropShadow_228_1189" result="shape"/>
</filter>
</defs>
</svg>
