<svg width="164" height="25" viewBox="0 0 164 25" fill="none" xmlns="http://www.w3.org/2000/svg">
<path d="M10.88 5.04V7.3H7.16V19H4.36V7.3H0.64V5.04H10.88ZM15.723 9.64C16.083 9.05333 16.5496 8.59333 17.123 8.26C17.7096 7.92667 18.3763 7.76 19.123 7.76V10.7H18.383C17.503 10.7 16.8363 10.9067 16.383 11.32C15.943 11.7333 15.723 12.4533 15.723 13.48V19H12.923V7.92H15.723V9.64ZM31.3089 13.22C31.3089 13.62 31.2822 13.98 31.2289 14.3H23.1289C23.1956 15.1 23.4756 15.7267 23.9689 16.18C24.4622 16.6333 25.0689 16.86 25.7889 16.86C26.8289 16.86 27.5689 16.4133 28.0089 15.52H31.0289C30.7089 16.5867 30.0956 17.4667 29.1889 18.16C28.2822 18.84 27.1689 19.18 25.8489 19.18C24.7822 19.18 23.8222 18.9467 22.9689 18.48C22.1289 18 21.4689 17.3267 20.9889 16.46C20.5222 15.5933 20.2889 14.5933 20.2889 13.46C20.2889 12.3133 20.5222 11.3067 20.9889 10.44C21.4556 9.57333 22.1089 8.90667 22.9489 8.44C23.7889 7.97333 24.7556 7.74 25.8489 7.74C26.9022 7.74 27.8422 7.96667 28.6689 8.42C29.5089 8.87333 30.1556 9.52 30.6089 10.36C31.0756 11.1867 31.3089 12.14 31.3089 13.22ZM28.4089 12.42C28.3956 11.7 28.1356 11.1267 27.6289 10.7C27.1222 10.26 26.5022 10.04 25.7689 10.04C25.0756 10.04 24.4889 10.2533 24.0089 10.68C23.5422 11.0933 23.2556 11.6733 23.1489 12.42H28.4089ZM39.4927 7.76C40.8127 7.76 41.8793 8.18 42.6927 9.02C43.506 9.84667 43.9127 11.0067 43.9127 12.5V19H41.1127V12.88C41.1127 12 40.8927 11.3267 40.4527 10.86C40.0127 10.38 39.4127 10.14 38.6527 10.14C37.8793 10.14 37.266 10.38 36.8127 10.86C36.3727 11.3267 36.1527 12 36.1527 12.88V19H33.3527V7.92H36.1527V9.3C36.526 8.82 36.9993 8.44667 37.5727 8.18C38.1593 7.9 38.7993 7.76 39.4927 7.76ZM45.8553 13.42C45.8553 12.3 46.0753 11.3067 46.5153 10.44C46.9686 9.57333 47.582 8.90667 48.3553 8.44C49.1286 7.97333 49.9886 7.74 50.9353 7.74C51.6553 7.74 52.342 7.9 52.9953 8.22C53.6486 8.52667 54.1686 8.94 54.5553 9.46V4.2H57.3953V19H54.5553V17.36C54.2086 17.9067 53.722 18.3467 53.0953 18.68C52.4686 19.0133 51.742 19.18 50.9153 19.18C49.982 19.18 49.1286 18.94 48.3553 18.46C47.582 17.98 46.9686 17.3067 46.5153 16.44C46.0753 15.56 45.8553 14.5533 45.8553 13.42ZM54.5753 13.46C54.5753 12.78 54.442 12.2 54.1753 11.72C53.9086 11.2267 53.5486 10.8533 53.0953 10.6C52.642 10.3333 52.1553 10.2 51.6353 10.2C51.1153 10.2 50.6353 10.3267 50.1953 10.58C49.7553 10.8333 49.3953 11.2067 49.1153 11.7C48.8486 12.18 48.7153 12.7533 48.7153 13.42C48.7153 14.0867 48.8486 14.6733 49.1153 15.18C49.3953 15.6733 49.7553 16.0533 50.1953 16.32C50.6486 16.5867 51.1286 16.72 51.6353 16.72C52.1553 16.72 52.642 16.5933 53.0953 16.34C53.5486 16.0733 53.9086 15.7 54.1753 15.22C54.442 14.7267 54.5753 14.14 54.5753 13.46ZM61.55 6.6C61.0567 6.6 60.6433 6.44667 60.31 6.14C59.99 5.82 59.83 5.42667 59.83 4.96C59.83 4.49333 59.99 4.10667 60.31 3.8C60.6433 3.48 61.0567 3.32 61.55 3.32C62.0433 3.32 62.45 3.48 62.77 3.8C63.1033 4.10667 63.27 4.49333 63.27 4.96C63.27 5.42667 63.1033 5.82 62.77 6.14C62.45 6.44667 62.0433 6.6 61.55 6.6ZM62.93 7.92V19H60.13V7.92H62.93ZM71.8364 7.76C73.1564 7.76 74.2231 8.18 75.0364 9.02C75.8497 9.84667 76.2564 11.0067 76.2564 12.5V19H73.4564V12.88C73.4564 12 73.2364 11.3267 72.7964 10.86C72.3564 10.38 71.7564 10.14 70.9964 10.14C70.2231 10.14 69.6097 10.38 69.1564 10.86C68.7164 11.3267 68.4964 12 68.4964 12.88V19H65.6964V7.92H68.4964V9.3C68.8697 8.82 69.3431 8.44667 69.9164 8.18C70.5031 7.9 71.1431 7.76 71.8364 7.76ZM83.2591 7.74C84.0857 7.74 84.8124 7.90667 85.4391 8.24C86.0657 8.56 86.5591 8.98 86.9191 9.5V7.92H89.7391V19.08C89.7391 20.1067 89.5324 21.02 89.1191 21.82C88.7057 22.6333 88.0857 23.2733 87.2591 23.74C86.4324 24.22 85.4324 24.46 84.2591 24.46C82.6857 24.46 81.3924 24.0933 80.3791 23.36C79.3791 22.6267 78.8124 21.6267 78.6791 20.36H81.4591C81.6057 20.8667 81.9191 21.2667 82.3991 21.56C82.8924 21.8667 83.4857 22.02 84.1791 22.02C84.9924 22.02 85.6524 21.7733 86.1591 21.28C86.6657 20.8 86.9191 20.0667 86.9191 19.08V17.36C86.5591 17.88 86.0591 18.3133 85.4191 18.66C84.7924 19.0067 84.0724 19.18 83.2591 19.18C82.3257 19.18 81.4724 18.94 80.6991 18.46C79.9257 17.98 79.3124 17.3067 78.8591 16.44C78.4191 15.56 78.1991 14.5533 78.1991 13.42C78.1991 12.3 78.4191 11.3067 78.8591 10.44C79.3124 9.57333 79.9191 8.90667 80.6791 8.44C81.4524 7.97333 82.3124 7.74 83.2591 7.74ZM86.9191 13.46C86.9191 12.78 86.7857 12.2 86.5191 11.72C86.2524 11.2267 85.8924 10.8533 85.4391 10.6C84.9857 10.3333 84.4991 10.2 83.9791 10.2C83.4591 10.2 82.9791 10.3267 82.5391 10.58C82.0991 10.8333 81.7391 11.2067 81.4591 11.7C81.1924 12.18 81.0591 12.7533 81.0591 13.42C81.0591 14.0867 81.1924 14.6733 81.4591 15.18C81.7391 15.6733 82.0991 16.0533 82.5391 16.32C82.9924 16.5867 83.4724 16.72 83.9791 16.72C84.4991 16.72 84.9857 16.5933 85.4391 16.34C85.8924 16.0733 86.2524 15.7 86.5191 15.22C86.7857 14.7267 86.9191 14.14 86.9191 13.46ZM103.379 7.76C104.699 7.76 105.766 8.18 106.579 9.02C107.393 9.84667 107.799 11.0067 107.799 12.5V19H104.999V12.88C104.999 12 104.779 11.3267 104.339 10.86C103.899 10.38 103.299 10.14 102.539 10.14C101.766 10.14 101.153 10.38 100.699 10.86C100.259 11.3267 100.039 12 100.039 12.88V19H97.2394V7.92H100.039V9.3C100.413 8.82 100.886 8.44667 101.459 8.18C102.046 7.9 102.686 7.76 103.379 7.76ZM115.382 19.18C114.315 19.18 113.355 18.9467 112.502 18.48C111.649 18 110.975 17.3267 110.482 16.46C110.002 15.5933 109.762 14.5933 109.762 13.46C109.762 12.3267 110.009 11.3267 110.502 10.46C111.009 9.59333 111.695 8.92667 112.562 8.46C113.429 7.98 114.395 7.74 115.462 7.74C116.529 7.74 117.495 7.98 118.362 8.46C119.229 8.92667 119.909 9.59333 120.402 10.46C120.909 11.3267 121.162 12.3267 121.162 13.46C121.162 14.5933 120.902 15.5933 120.382 16.46C119.875 17.3267 119.182 18 118.302 18.48C117.435 18.9467 116.462 19.18 115.382 19.18ZM115.382 16.74C115.889 16.74 116.362 16.62 116.802 16.38C117.255 16.1267 117.615 15.7533 117.882 15.26C118.149 14.7667 118.282 14.1667 118.282 13.46C118.282 12.4067 118.002 11.6 117.442 11.04C116.895 10.4667 116.222 10.18 115.422 10.18C114.622 10.18 113.949 10.4667 113.402 11.04C112.869 11.6 112.602 12.4067 112.602 13.46C112.602 14.5133 112.862 15.3267 113.382 15.9C113.915 16.46 114.582 16.74 115.382 16.74ZM138.576 7.92L135.336 19H132.316L130.296 11.26L128.276 19H125.236L121.976 7.92H124.816L126.776 16.36L128.896 7.92H131.856L133.936 16.34L135.896 7.92H138.576ZM143.477 20.4H163.477V0.4H143.477V20.4Z" fill="#303030"/>
</svg>
