<svg width="58" height="28" viewBox="0 0 58 28" fill="none" xmlns="http://www.w3.org/2000/svg">
<g filter="url(#filter0_b_228_1184)">
<rect width="58" height="28" rx="8" fill="#303030" fill-opacity="0.3"/>
<path d="M19.5501 15.4648C19.3947 15.6233 19.3233 15.8525 19.3587 16.0774L19.892 19.1845C19.937 19.4479 19.8314 19.7144 19.6221 19.8666C19.4169 20.0245 19.1439 20.0434 18.9202 19.9171L16.2631 18.4582C16.1707 18.4065 16.0681 18.3787 15.9631 18.3755H15.8006C15.7442 18.3844 15.689 18.4033 15.6386 18.4324L12.9809 19.8982C12.8496 19.9676 12.7008 19.9923 12.555 19.9676C12.1998 19.8969 11.9629 19.5407 12.0211 19.1649L12.555 16.0578C12.5904 15.8311 12.519 15.6005 12.3636 15.4395L10.1973 13.2291C10.0161 13.0441 9.95313 12.7662 10.0359 12.5155C10.1163 12.2654 10.3215 12.0829 10.5693 12.0418L13.5509 11.5865C13.7776 11.5619 13.9768 11.4166 14.0788 11.2019L15.3926 8.36629C15.4238 8.30314 15.464 8.24504 15.5126 8.19578L15.5666 8.15157C15.5948 8.11873 15.6272 8.09157 15.6632 8.06947L15.7286 8.04421L15.8306 8H16.0831C16.3087 8.02463 16.5073 8.16673 16.6111 8.37892L17.9423 11.2019C18.0383 11.4084 18.2249 11.5518 18.4402 11.5865L21.4218 12.0418C21.6738 12.0797 21.8844 12.2629 21.9678 12.5155C22.0464 12.7687 21.9786 13.0466 21.7938 13.2291L19.5501 15.4648Z" fill="white"/>
<path d="M28.658 17.012V15.472L33.236 8.92H35.518V15.304H36.75V17.012H35.518V19H33.558V17.012H28.658ZM33.684 11.02L30.814 15.304H33.684V11.02ZM40.3639 16.942L38.7259 20.876H37.4659L38.3759 16.942H40.3639ZM48.4125 10.488H43.8765V12.882C44.0725 12.6393 44.3525 12.4433 44.7165 12.294C45.0805 12.1353 45.4679 12.056 45.8785 12.056C46.6252 12.056 47.2365 12.2193 47.7125 12.546C48.1885 12.8727 48.5339 13.2927 48.7485 13.806C48.9632 14.31 49.0705 14.8513 49.0705 15.43C49.0705 16.5033 48.7625 17.3667 48.1465 18.02C47.5399 18.6733 46.6719 19 45.5425 19C44.4785 19 43.6292 18.734 42.9945 18.202C42.3599 17.67 42.0005 16.9747 41.9165 16.116H43.8205C43.9045 16.4893 44.0912 16.788 44.3805 17.012C44.6792 17.236 45.0572 17.348 45.5145 17.348C46.0652 17.348 46.4805 17.1753 46.7605 16.83C47.0405 16.4847 47.1805 16.0273 47.1805 15.458C47.1805 14.8793 47.0359 14.4407 46.7465 14.142C46.4665 13.834 46.0512 13.68 45.5005 13.68C45.1085 13.68 44.7819 13.778 44.5205 13.974C44.2592 14.17 44.0725 14.4313 43.9605 14.758H42.0845V8.766H48.4125V10.488Z" fill="white"/>
</g>
<defs>
<filter id="filter0_b_228_1184" x="-5" y="-5" width="68" height="38" filterUnits="userSpaceOnUse" color-interpolation-filters="sRGB">
<feFlood flood-opacity="0" result="BackgroundImageFix"/>
<feGaussianBlur in="BackgroundImageFix" stdDeviation="2.5"/>
<feComposite in2="SourceAlpha" operator="in" result="effect1_backgroundBlur_228_1184"/>
<feBlend mode="normal" in="SourceGraphic" in2="effect1_backgroundBlur_228_1184" result="shape"/>
</filter>
</defs>
</svg>
